<?xml version="1.0" encoding="UTF-8" standalone="no"?>
<!-- Created with Inkscape (http://www.inkscape.org/) -->

<svg
   width="438.11621"
   height="704.00525"
   viewBox="0 0 438.11621 704.00525"
   version="1.1"
   id="svg1"
   xml:space="preserve"
   xmlns="http://www.w3.org/2000/svg"
   xmlns:svg="http://www.w3.org/2000/svg"
   xmlns:rdf="http://www.w3.org/1999/02/22-rdf-syntax-ns#"
   xmlns:cc="http://creativecommons.org/ns#"
   xmlns:dc="http://purl.org/dc/elements/1.1/"><defs
     id="defs1" /><metadata
     id="metadata1"><rdf:RDF><cc:Work
         rdf:about=""><dc:format>image/svg+xml</dc:format><dc:type
           rdf:resource="http://purl.org/dc/dcmitype/StillImage" /></cc:Work></rdf:RDF></metadata><g
     id="g24"
     transform="translate(-2143,-586.76257)"><rect
       style="fill:#ebebeb;fill-opacity:1;stroke:none;stroke-width:1.00113;stroke-opacity:1"
       id="rect22"
       width="438.11612"
       height="704.00519"
       x="2143"
       y="586.76257" /><path
       style="fill:#22461e;fill-opacity:1;stroke:none;stroke-opacity:1"
       d="m 2143,587 c 6,1 320,310 320,310 0,0 24.4249,22.41559 39.6277,22.59237 0,0 -41.5426,9.54594 -58.1596,28.28427 C 2427.8511,966.61497 2363.5,1033.5 2423,1101 c 59.5,67.5 158,41 158,41 v 148.5 l -355,-355 c 0,0 -14.5235,-17.32185 -40.6865,-17.32185 -0.7071,0 102.884,11.66726 116.3191,-69.29646 13.435,-80.96373 -29.9934,-111.93693 -29.9934,-111.93693 0,0 -47.7694,-35.61376 -128.6392,-13.94476 z"
       id="path12" /><path
       style="fill:#22461e;fill-opacity:1;stroke:none;stroke-width:1.65958;stroke-opacity:1"
       d="m 2143.0149,1026.8843 263.874,263.874 h -263.874 z"
       id="path22" /><path
       style="fill:#22461e;fill-opacity:1;stroke:none;stroke-width:1.58492;stroke-opacity:1"
       d="M 2581.1039,838.78414 2329.1025,586.78266 h 252.0014 z"
       id="path22-6" /></g></svg>
